<?xml version="1.0" encoding="UTF-8"?>
<svg version="1.1" xmlns="http://www.w3.org/2000/svg" width="500" height="79">
<path d="M0 0 C165 0 330 0 500 0 C500 26.07 500 52.14 500 79 C335 79 170 79 0 79 C0 52.93 0 26.86 0 0 Z " fill="#040000" transform="translate(0,0)"/>
<path d="M0 0 C24.7109375 0 24.7109375 0 29.64453125 4.5 C32.66367605 8.37743011 34.11365676 11.11679399 34.16113281 16.0090332 C34.17074036 16.81029129 34.1803479 17.61154938 34.19024658 18.43708801 C34.19449646 19.29960678 34.19874634 20.16212555 34.203125 21.05078125 C34.20882507 21.94234421 34.21452515 22.83390717 34.22039795 23.75248718 C34.22984349 25.63958552 34.23638016 27.52670032 34.24023438 29.41381836 C34.24992807 32.29114821 34.28095055 35.16776001 34.3125 38.04492188 C34.31903157 39.8802041 34.32428144 41.71549143 34.328125 43.55078125 C34.3404718 44.40722733 34.3528186 45.2636734 34.36553955 46.14607239 C34.34393319 51.98279883 33.26678427 55.97762098 29.6875 60.75 C25.0052703 64.21831829 19.60425197 64.28757593 14 64.1875 C13.31421875 64.18685547 12.6284375 64.18621094 11.921875 64.18554688 C7.77452411 64.14993031 4.13747347 63.68957891 0 63 C0 42.21 0 21.42 0 0 Z " fill="#F40000" transform="translate(339,3)"/>
<path d="M0 0 C24.08333333 0 24.08333333 0 30.9375 5.25 C34.80941375 10.31032292 33.76407828 18.04018945 33 24 C31.39885191 27.98425222 30.59880972 29.60079352 27 32 C27.804375 32.598125 28.60875 33.19625 29.4375 33.8125 C32 36 32 36 33 39 C33.14986411 40.9906444 33.24828038 42.98535391 33.31640625 44.98046875 C33.35830078 46.14384766 33.40019531 47.30722656 33.44335938 48.50585938 C33.48267578 49.72080078 33.52199219 50.93574219 33.5625 52.1875 C33.62727539 54.02731445 33.62727539 54.02731445 33.69335938 55.90429688 C33.7995309 58.93608381 33.90157952 61.96795315 34 65 C32.18757948 65.02687279 30.37504767 65.04633715 28.5625 65.0625 C27.55316406 65.07410156 26.54382813 65.08570312 25.50390625 65.09765625 C23 65 23 65 22 64 C21.85465348 62.31746416 21.77282378 60.62934242 21.71875 58.94140625 C21.68136719 57.91595703 21.64398438 56.89050781 21.60546875 55.83398438 C21.55326172 54.21459961 21.55326172 54.21459961 21.5 52.5625 C21.43128385 50.43866202 21.35856667 48.31494853 21.28125 46.19140625 C21.25095703 45.24467041 21.22066406 44.29793457 21.18945312 43.32250977 C21.14338498 40.97592506 21.14338498 40.97592506 20 39 C17.03 38.67 14.06 38.34 11 38 C11 46.91 11 55.82 11 65 C9 66 9 66 0 66 C0 44.22 0 22.44 0 0 Z " fill="#F50000" transform="translate(85,3)"/>
<path d="M0 0 C4.62 0 9.24 0 14 0 C17.39121388 12.65183638 20.69976372 25.32409248 24 38 C24.33 25.46 24.66 12.92 25 0 C27.97 0 30.94 0 34 0 C34 23.1 34 46.2 34 70 C30.37 69.67 26.74 69.34 23 69 C19.84047888 58.22603299 16.72792816 47.47270635 14.29394531 36.50805664 C13.40500298 32.53628228 12.29741738 28.89225213 11 25 C10.67 39.19 10.34 53.38 10 68 C6.7 68 3.4 68 0 68 C0 45.56 0 23.12 0 0 Z " fill="#FA0000" transform="translate(462,4)"/>
<path d="M0 0 C24.41950113 0 24.41950113 0 30.97265625 5.72265625 C32.55040907 9.22010833 32.47284805 12.6745394 32.4375 16.4375 C32.4674707 17.56381836 32.4674707 17.56381836 32.49804688 18.71289062 C32.49456537 22.6713651 32.25334858 24.59578677 30.09765625 28.03515625 C28 30 28 30 26 30 C26 30.66 26 31.32 26 32 C26.598125 32.04125 27.19625 32.0825 27.8125 32.125 C30 33 30 33 31.625 35.28125 C33.61373926 40.65988574 33.31799774 45.69332931 33.1875 51.375 C33.16719727 53.05142578 33.16719727 53.05142578 33.14648438 54.76171875 C33.11127537 57.50802088 33.05747288 60.25407357 33 63 C29.37 63 25.74 63 22 63 C21.96261719 61.37449219 21.92523438 59.74898437 21.88671875 58.07421875 C21.82106894 55.94528904 21.75462126 53.81638383 21.6875 51.6875 C21.66494141 50.61564453 21.64238281 49.54378906 21.61914062 48.43945312 C21.5659668 46.89741211 21.5659668 46.89741211 21.51171875 45.32421875 C21.47244263 43.9024231 21.47244263 43.9024231 21.43237305 42.4519043 C21.15797285 40.01133772 21.15797285 40.01133772 19.90551758 38.22973633 C17.38396852 36.41441583 17.38396852 36.41441583 11 36 C11 44.58 11 53.16 11 62 C7.37 62 3.74 62 0 62 C0 41.54 0 21.08 0 0 Z " fill="#F90000" transform="translate(299,3)"/>
<path d="M0 0 C3.63 0 7.26 0 11 0 C11 9.24 11 18.48 11 28 C14.96 28 18.92 28 23 28 C23 18.76 23 9.52 23 0 C26.63 0 30.26 0 34 0 C34 22.44 34 44.88 34 68 C30.37 68 26.74 68 23 68 C23 58.1 23 48.2 23 38 C19.04 38 15.08 38 11 38 C11 48.23 11 58.46 11 69 C5.555 69.495 5.555 69.495 0 70 C0 46.9 0 23.8 0 0 Z " fill="#F70000" transform="translate(3,4)"/>
<path d="M0 0 C4.95 0 9.9 0 15 0 C16.61823408 7.00427631 17.93892227 14.03047857 19.1640625 21.11328125 C19.36099701 22.24525436 19.55793152 23.37722748 19.76083374 24.54350281 C20.17368181 26.92082048 20.58541733 29.29833161 20.99609375 31.67602539 C21.62616513 35.31923705 22.26212552 38.96138939 22.8984375 42.60351562 C23.29983648 44.91920893 23.70089029 47.23496209 24.1015625 49.55078125 C24.2921524 50.63933914 24.48274231 51.72789703 24.67910767 52.84944153 C24.85283905 53.86116928 25.02657043 54.87289703 25.20556641 55.9152832 C25.35941803 56.80302933 25.51326965 57.69077545 25.67178345 58.60542297 C26 61 26 61 26 65 C23.24921116 65.91692961 21.64051087 66.10886083 18.8125 66.0625 C17.554375 66.041875 16.29625 66.02125 15 66 C14.34 62.04 13.68 58.08 13 54 C8.71 54 4.42 54 0 54 C-0.33 58.29 -0.66 62.58 -1 67 C-4.3 67 -7.6 67 -11 67 C-10.47016724 58.36349563 -9.47816021 49.94329985 -7.96875 41.42578125 C-7.77277222 40.29472458 -7.57679443 39.16366791 -7.37487793 37.99833679 C-6.96423777 35.63583763 -6.55067743 33.27384428 -6.13427734 30.91235352 C-5.49508126 27.28458357 -4.86599902 23.65516252 -4.23828125 20.02539062 C-3.83652343 17.72125193 -3.43420048 15.41721168 -3.03125 13.11328125 C-2.84268433 12.02694901 -2.65411865 10.94061676 -2.45983887 9.82136536 C-2.28295532 8.82239731 -2.10607178 7.82342926 -1.92382812 6.79418945 C-1.76918091 5.91406693 -1.61453369 5.0339444 -1.4552002 4.12715149 C-1 2 -1 2 0 0 Z " fill="#F60000" transform="translate(54,4)"/>
<path d="M0 0 C5.28 0 10.56 0 16 0 C16.2673999 1.61487305 16.5347998 3.22974609 16.81030273 4.89355469 C17.80198603 10.8798306 18.79580959 16.86574955 19.7902832 22.8515625 C20.220556 25.44326227 20.65024681 28.03505873 21.0793457 30.62695312 C21.6959004 34.35051585 22.31454109 38.07372686 22.93359375 41.796875 C23.12529648 42.95741394 23.31699921 44.11795288 23.51451111 45.31365967 C23.69462234 46.39447815 23.87473358 47.47529663 24.06030273 48.58886719 C24.29679787 50.01449982 24.29679787 50.01449982 24.53807068 51.46893311 C24.82710154 53.05263089 25.15886551 54.62977716 25.55262756 56.19073486 C26.10433014 58.4219323 26.09624394 60.4554119 26.0625 62.75 C26.05347656 63.54921875 26.04445313 64.3484375 26.03515625 65.171875 C26.02355469 65.77515625 26.01195312 66.3784375 26 67 C24.35425434 67.02688151 22.70838587 67.04634123 21.0625 67.0625 C20.14597656 67.07410156 19.22945313 67.08570312 18.28515625 67.09765625 C16 67 16 67 15 66 C14.5361934 62.00897282 14.29531823 58.00789032 14 54 C9.71 53.67 5.42 53.34 1 53 C0.855625 54.77375 0.71125 56.5475 0.5625 58.375 C0.125 63.75 0.125 63.75 -1 66 C-3.97 65.67 -6.94 65.34 -10 65 C-10.20619399 58.48954457 -9.42324499 52.44435073 -8.3203125 46.03515625 C-8.14748749 45.00241074 -7.97466248 43.96966522 -7.79660034 42.90562439 C-7.43141675 40.73092049 -7.06312468 38.55673654 -6.69189453 36.38305664 C-6.12755357 33.07745739 -5.57270454 29.77037516 -5.01953125 26.46289062 C-4.66201401 24.34105213 -4.30395882 22.21930419 -3.9453125 20.09765625 C-3.78064484 19.11926285 -3.61597717 18.14086945 -3.44631958 17.13282776 C-2.46074894 11.37704934 -1.31315444 5.69021426 0 0 Z " fill="#F70000" transform="translate(430,4)"/>
<path d="M0 0 C3.63 0 7.26 0 11 0 C11 21.78 11 43.56 11 66 C4 66 4 66 0 65 C0 55.43 0 45.86 0 36 C-3.96 36 -7.92 36 -12 36 C-12 45.57 -12 55.14 -12 65 C-15.63 65 -19.26 65 -23 65 C-23 43.88 -23 22.76 -23 1 C-19.37 1 -15.74 1 -12 1 C-12 9.58 -12 18.16 -12 27 C-8.04 27 -4.08 27 0 27 C0 18.09 0 9.18 0 0 Z " fill="#F90000" transform="translate(403,3)"/>
<path d="M0 0 C3.63 0 7.26 0 11 0 C11 8.58 11 17.16 11 26 C14.96 26 18.92 26 23 26 C23 17.42 23 8.84 23 0 C26.63 0 30.26 0 34 0 C34 20.79 34 41.58 34 63 C30.37 63 26.74 63 23 63 C23 53.76 23 44.52 23 35 C19.04 35 15.08 35 11 35 C11 44.24 11 53.48 11 63 C7.37 63 3.74 63 0 63 C0 42.21 0 21.42 0 0 Z " fill="#F80000" transform="translate(163,3)"/>
<path d="M0 0 C4.95 0 9.9 0 15 0 C17.25136437 7.87977529 17.25136437 7.87977529 17.94555664 11.44384766 C18.18073753 12.64142197 18.18073753 12.64142197 18.42066956 13.8631897 C18.58220016 14.70497772 18.74373077 15.54676575 18.91015625 16.4140625 C19.08252304 17.30556 19.25488983 18.1970575 19.43247986 19.11557007 C19.79467039 20.99615143 20.15511779 22.87706925 20.51391602 24.75830078 C21.05711956 27.59688376 21.61131233 30.43317631 22.16601562 33.26953125 C24.01874404 42.87638833 25.51881988 52.21353666 26 62 C22.37 62 18.74 62 15 62 C14.67 58.04 14.34 54.08 14 50 C9.71 50 5.42 50 1 50 C0.67 53.96 0.34 57.92 0 62 C-3.63 62 -7.26 62 -11 62 C-10.22954328 55.06957589 -8.99867043 48.25824925 -7.71484375 41.40625 C-7.49429825 40.21898315 -7.27375275 39.03171631 -7.04652405 37.80847168 C-6.34571153 34.03856866 -5.64165389 30.26928019 -4.9375 26.5 C-4.46007168 23.9349358 -3.98285582 21.36983205 -3.50585938 18.8046875 C-2.33969915 12.53599767 -1.17062933 6.26785674 0 0 Z " fill="#F70000" transform="translate(267,3)"/>
<path d="M0 0 C4.61928061 4.86240064 5.12422355 8.41615196 5 15 C1.37 15 -2.26 15 -6 15 C-6.33 12.69 -6.66 10.38 -7 8 C-10.40320934 7.32326553 -10.40320934 7.32326553 -14 7 C-16.26339699 8.86000815 -16.26339699 8.86000815 -16.375 11.75 C-15.76841439 17.0070753 -13.0104094 20.09941771 -9.125 23.5625 C-8.09375 24.366875 -7.0625 25.17125 -6 26 C-0.87880405 29.99453284 2.91108151 33.73324453 5 40 C5.63102314 47.05047012 4.93688621 51.8883593 0.75 57.75 C-4.88599854 61.77571325 -12.36893786 61.66721213 -19 61 C-22.77291507 59.42795206 -24.88617839 57.48780566 -27 54 C-28.50046344 50.18063853 -28.06729666 46.03779954 -28 42 C-24.7 42 -21.4 42 -18 42 C-17.87625 43.11375 -17.7525 44.2275 -17.625 45.375 C-17.3534187 49.03103677 -17.3534187 49.03103677 -15 51 C-12 51.33333333 -12 51.33333333 -9 51 C-6.66847692 49.08274006 -6.66847692 49.08274006 -6.625 45.75 C-7.20625572 39.93744284 -9.27702179 37.4719829 -13.57421875 33.80078125 C-15.48030617 32.26115122 -17.40292757 30.74170005 -19.34375 29.24609375 C-24.39337551 24.97618982 -27.46000411 20.72733241 -28.22265625 14.05078125 C-28.43078071 9.30011413 -27.67411301 6.05727491 -25 2 C-17.92181324 -4.71520282 -8.33223143 -4.73793552 0 0 Z " fill="#F60000" transform="translate(152,6)"/>
<path d="M0 0 C1.81242052 -0.02687279 3.62495233 -0.04633715 5.4375 -0.0625 C6.44683594 -0.07410156 7.45617187 -0.08570313 8.49609375 -0.09765625 C11 0 11 0 12 1 C12.26159024 2.32123652 12.46741259 3.65361823 12.6484375 4.98828125 C12.76533936 5.83108643 12.88224121 6.6738916 13.00268555 7.54223633 C13.12554932 8.45642334 13.24841309 9.37061035 13.375 10.3125 C13.6386554 12.21884244 13.90299695 14.12509009 14.16796875 16.03125 C14.30380371 17.01351563 14.43963867 17.99578125 14.57958984 19.0078125 C15.25021604 23.780864 15.96723832 28.54672522 16.6875 33.3125 C16.81882324 34.18366455 16.95014648 35.0548291 17.08544922 35.95239258 C17.38963104 37.96836269 17.69470667 39.98419791 18 42 C20.00168439 37.73808031 20.54552992 33.56906197 21 28.9375 C21.66277791 22.76086107 22.48485138 16.65586362 23.5625 10.53515625 C23.94868208 8.297369 24.27137307 6.06418481 24.5625 3.8125 C25 1 25 1 26 0 C29.33327842 -0.1424478 32.66453893 -0.04222103 36 0 C34.3872606 12.21974789 32.18634304 24.30876699 29.95629883 36.42749023 C29.48783583 38.97854295 29.02310155 41.53025586 28.55859375 44.08203125 C28.41691269 44.84473831 28.27523163 45.60744537 28.1292572 46.39326477 C27.18602607 51.5814803 26.53571573 56.75362447 26 62 C20.72 62 15.44 62 10 62 C9.7054895 60.15607666 9.7054895 60.15607666 9.4050293 58.27490234 C8.66508973 53.64848799 7.92026389 49.02287065 7.17407227 44.39746094 C6.85375955 42.4077613 6.53471548 40.41785694 6.21704102 38.42773438 C4.57404891 28.14027514 2.91924388 17.90867056 0.52661133 7.76416016 C0.0190284 5.09987924 -0.1007096 2.70397529 0 0 Z " fill="#F60000" transform="translate(218,3)"/>
<path d="M0 0 C8.11111111 0 8.11111111 0 11 2 C12.62123799 5.24247598 12.18438854 8.80348706 12.203125 12.3671875 C12.20882507 13.19832062 12.21452515 14.02945374 12.22039795 14.88577271 C12.22985146 16.64600347 12.23638332 18.40625197 12.24023438 20.16650391 C12.24993658 22.85741113 12.28095456 25.54755348 12.3125 28.23828125 C12.31903043 29.94791213 12.32428075 31.65754847 12.328125 33.3671875 C12.3404718 34.17147186 12.3528186 34.97575623 12.36553955 35.80441284 C12.35309715 38.9305877 12.1498234 41.60283816 11.04199219 44.53955078 C9 46 9 46 0 46 C0 30.82 0 15.64 0 0 Z " fill="#140000" transform="translate(350,12)"/>
<path d="M0 0 C8 0 8 0 9.96875 1.12890625 C12.27935036 5.32124554 11.67229633 10.4017468 11 15 C8.875 17.75 8.875 17.75 6 19 C4.02 19 2.04 19 0 19 C0 12.73 0 6.46 0 0 Z " fill="#110000" transform="translate(96,13)"/>
<path d="M0 0 C7 0 7 0 10 2 C10.36328125 5.1875 10.36328125 5.1875 10.3125 9 C10.30863281 10.258125 10.30476563 11.51625 10.30078125 12.8125 C10 16 10 16 8 18 C5.36 18 2.72 18 0 18 C0 12.06 0 6.12 0 0 Z " fill="#060000" transform="translate(310,12)"/>
<path d="M0 0 C1.81067468 3.16751342 2.41786273 5.88967692 2.8515625 9.5 C2.98046875 10.551875 3.109375 11.60375 3.2421875 12.6875 C3.36851562 13.780625 3.49484375 14.87375 3.625 16 C3.7590625 17.093125 3.893125 18.18625 4.03125 19.3125 C4.54424557 23.58397331 5 27.69238476 5 32 C2.03 32 -0.94 32 -4 32 C-2.57943925 7.73831776 -2.57943925 7.73831776 0 0 Z " fill="#090000" transform="translate(437,16)"/>
<path d="M0 0 C0.33 0 0.66 0 1 0 C1.67862172 3.49778963 2.34068889 6.99852343 3 10.5 C3.19078125 11.48226563 3.3815625 12.46453125 3.578125 13.4765625 C4.62599407 19.09014679 5.21751082 24.2903409 5 30 C2.03 30 -0.94 30 -4 30 C-4.25645895 23.26795268 -3.28162548 17.0986393 -2 10.5 C-1.80921875 9.48679687 -1.6184375 8.47359375 -1.421875 7.4296875 C-0.95435389 4.95182561 -0.48026672 2.47541732 0 0 Z " fill="#160000" transform="translate(274,15)"/>
<path d="M0 0 C0.66 0 1.32 0 2 0 C2.67047742 4.10355363 3.33572962 8.2079374 4 12.3125 C4.19078125 13.47974609 4.3815625 14.64699219 4.578125 15.84960938 C4.75859375 16.96787109 4.9390625 18.08613281 5.125 19.23828125 C5.29257813 20.26993408 5.46015625 21.30158691 5.6328125 22.36450195 C6 25 6 25 6 28 C2.7 28 -0.6 28 -4 28 C-3.52488016 24.08283132 -3.04420382 20.16636404 -2.5625 16.25 C-2.42779297 15.13882813 -2.29308594 14.02765625 -2.15429688 12.8828125 C-2.02216797 11.81289063 -1.89003906 10.74296875 -1.75390625 9.640625 C-1.63345947 8.65610352 -1.5130127 7.67158203 -1.38891602 6.65722656 C-1.05532586 4.37800798 -0.60987459 2.21856266 0 0 Z " fill="#0F0000" transform="translate(60,20)"/>
<path d="M0 0 C2 4 2 4 2 8 C1.01 8.33 0.02 8.66 -1 9 C-0.67 6.03 -0.34 3.06 0 0 Z " fill="#450000" transform="translate(437,16)"/>
</svg>
